# xmcd
#
# Track frame offsets:
#	150
#	17117
#	33547
#	49420
#	64157
#	77805
#	91470
#	108170
#	121087
#	137492
#	157855
#	172952
#	187410
#	204817
#	219220
#	238237
#	253200
#	270965
#	296072
#	317850
#
# Disc length: 4418 seconds
#
# Revision: 1
# Processed by: cddbd v1.5.1PL0 Copyright (c) Steve Scherf et al.
# Submitted via: CDex 1.50Beta5
#
DISCID=1d114014
DTITLE=Various Artist - 幻の名盤解放歌集春の紅白歌合戦紅組
DYEAR=1900
DGENRE=Anime
TTITLE0=市川瑛子/カナダの夜明け
TTITLE1=市川瑛子/夜明けの横浜
TTITLE2=白川奈美/ママの星
TTITLE3=都川愛子/悪魔のささやき
TTITLE4=アイリーン/愛の出発
TTITLE5=川田あきら/ネオン学校
TTITLE6=司　美智子/ふるさとの歌
TTITLE7=大屋政子/過去（きず）
TTITLE8=真知けい子/母さん私も女です
TTITLE9=吉田正美と茶坊主/黄昏色を心にそめて
TTITLE10=水谷ミミ/シワシワ音頭
TTITLE11=水谷ミミ/キャリア・ウーマン・ブルース
TTITLE12=伊東マユミ/DISCO CHUREN POHTOW（九連宝燈）
TTITLE13=小川貴美/兄ちゃん
TTITLE14=松井計井子/ジェラス・ガイ
TTITLE15=松井計井子/ラブ
TTITLE16=松井計井子/ゴッド
TTITLE17=松井計井子/ハウ・ドゥ・ユゥ・スリープ
TTITLE18=松井計井子/マザー
TTITLE19=松井計井子/イマジン
EXTD=
EXTT0=
EXTT1=
EXTT2=
EXTT3=
EXTT4=
EXTT5=
EXTT6=
EXTT7=
EXTT8=
EXTT9=
EXTT10=
EXTT11=
EXTT12=
EXTT13=
EXTT14=
EXTT15=
EXTT16=
EXTT17=
EXTT18=
EXTT19=
PLAYORDER=
